<?xml version="1.0" encoding="utf-8"?>
<!-- Generator: Adobe Illustrator 16.0.0, SVG Export Plug-In . SVG Version: 6.00 Build 0)  -->
<!DOCTYPE svg PUBLIC "-//W3C//DTD SVG 1.1//EN" "http://www.w3.org/Graphics/SVG/1.1/DTD/svg11.dtd">
<svg version="1.1" id="Layer_1" xmlns="http://www.w3.org/2000/svg" xmlns:xlink="http://www.w3.org/1999/xlink" x="0px" y="0px"
	 width="100px" height="100px" viewBox="0 0 100 100" enable-background="new 0 0 100 100" xml:space="preserve">
<path fill="#58595B" d="M60.865,46.179c0-0.013-0.011-0.015-0.011-0.021c-0.896-0.872-2.354-0.872-3.235,0.008L33.194,70.364
	c-0.234,0.235-0.397,0.53-0.441,0.877l-0.731,5.147c-0.14,0.979,0.181,1.937,0.874,2.609c0.586,0.591,1.356,0.896,2.159,0.896
	c0.15,0,0.298-0.01,0.448-0.02l5.147-0.734c0.329-0.052,0.63-0.204,0.858-0.428l24.402-24.178c0.469-0.438,0.709-1.013,0.714-1.617
	c0.005-0.633-0.229-1.225-0.673-1.673L60.865,46.179z M39.71,76.165l-4.646,0.651l0.658-4.627l23.512-23.293l3.976,3.974
	L39.71,76.165z M78.266,16.673h-6.172V9.859c0-0.847-0.699-1.537-1.534-1.537c-0.856,0-1.539,0.69-1.539,1.537v6.824l-38.03-0.01
	V9.859c0-0.847-0.691-1.537-1.537-1.537s-1.537,0.69-1.537,1.537v6.813h-6.18c-5.094,0-9.237,4.144-9.237,9.237v56.523
	c0,5.086,4.143,9.244,9.237,9.244h56.528c5.081,0,9.234-4.158,9.234-9.244V25.91C87.5,20.816,83.347,16.673,78.266,16.673z
	 M84.427,82.434c0,3.394-2.773,6.166-6.161,6.166H21.737c-3.402,0-6.164-2.772-6.164-6.166V25.91c0-3.401,2.762-6.164,6.164-6.164
	h7.716l41.106,0.01c0.032,0,0.063-0.008,0.096-0.01h7.61c3.388,0,6.161,2.762,6.161,6.164V82.434z M82.363,35.755
	c0,0.846-0.704,1.537-1.539,1.537H19.171c-0.846,0-1.537-0.691-1.537-1.537c0-0.846,0.691-1.537,1.537-1.537h61.653
	C81.659,34.218,82.363,34.909,82.363,35.755z"/>
</svg>
