<?xml version="1.0" encoding="utf-8"?>
<!-- Generator: Adobe Illustrator 16.0.0, SVG Export Plug-In . SVG Version: 6.00 Build 0)  -->
<!DOCTYPE svg PUBLIC "-//W3C//DTD SVG 1.1//EN" "http://www.w3.org/Graphics/SVG/1.1/DTD/svg11.dtd">
<svg version="1.1" id="Layer_1" xmlns="http://www.w3.org/2000/svg" xmlns:xlink="http://www.w3.org/1999/xlink" x="0px" y="0px"
	 width="100px" height="100px" viewBox="0 0 100 100" enable-background="new 0 0 100 100" xml:space="preserve">
<g>
	<path fill="#58595B" d="M84.218,78.613H15.782c-1.939,0-3.517-1.58-3.517-3.523v-4.557c0-1.939,1.578-3.517,3.517-3.517h68.436
		c1.939,0,3.518,1.577,3.518,3.517v4.557C87.735,77.033,86.157,78.613,84.218,78.613z M15.782,69.487
		c-0.577,0-1.046,0.47-1.046,1.046v4.557c0,0.58,0.47,1.053,1.046,1.053h68.436c0.577,0,1.047-0.473,1.047-1.053v-4.557
		c0-0.576-0.47-1.046-1.047-1.046H15.782z M81.937,64.924H18.063c-0.683,0-1.235-0.553-1.235-1.235
		c0-16.01,11.693-29.852,27.373-32.635v-0.352h-1.046c-1.939,0-3.517-1.579-3.517-3.52V24.9c0-1.938,1.578-3.514,3.517-3.514h13.689
		c1.939,0,3.517,1.576,3.517,3.514v2.282c0,1.941-1.577,3.52-3.517,3.52h-1.046v0.352c15.68,2.782,27.373,16.625,27.373,32.635
		C83.172,64.371,82.619,64.924,81.937,64.924z M19.324,62.453h61.352C80.081,47.836,68.979,35.43,54.388,33.33
		c-0.608-0.088-1.06-0.609-1.06-1.223v-2.64c0-0.683,0.553-1.235,1.235-1.235h2.281c0.576,0,1.046-0.471,1.046-1.049V24.9
		c0-0.575-0.47-1.043-1.046-1.043H43.155c-0.577,0-1.046,0.468-1.046,1.043v2.282c0,0.578,0.469,1.049,1.046,1.049h2.281
		c0.683,0,1.235,0.553,1.235,1.235v2.64c0,0.614-0.451,1.135-1.059,1.223C31.021,35.43,19.919,47.836,19.324,62.453z"/>
</g>
</svg>
