<?xml version="1.0" encoding="utf-8"?>
<!-- Generator: Adobe Illustrator 16.0.0, SVG Export Plug-In . SVG Version: 6.00 Build 0)  -->
<!DOCTYPE svg PUBLIC "-//W3C//DTD SVG 1.1//EN" "http://www.w3.org/Graphics/SVG/1.1/DTD/svg11.dtd">
<svg version="1.1" id="Layer_1" xmlns="http://www.w3.org/2000/svg" xmlns:xlink="http://www.w3.org/1999/xlink" x="0px" y="0px"
	 width="100px" height="100px" viewBox="0 0 100 100" enable-background="new 0 0 100 100" xml:space="preserve">
<path fill="#58595B" d="M50,16.826c8.104,0,10.073,7.7,10.624,9.193c1.086-0.483,3.834-1.998,7.053-1.998
	c2.229,0,4.684,0.724,6.973,3.019c5.722,5.713,1.702,12.524,1.012,14.022c1.9,0.713,9.203,2.694,9.203,10.629
	c0,8.106-7.705,10.076-9.203,10.627c0.827,1.846,4.577,8.429-1.012,14.023c-2.222,2.224-4.438,3.062-6.724,3.062
	c-2.338,0-4.746-0.876-7.302-2.041c-0.699,1.89-2.674,9.192-10.624,9.192c-8.114,0-10.077-7.705-10.627-9.192
	c-2.569,1.164-4.978,2.034-7.31,2.034c-2.286,0-4.498-0.837-6.714-3.055c-5.724-5.71-1.702-12.529-1.02-14.023
	c-1.891-0.702-9.193-2.678-9.193-10.627c0-8.106,7.704-10.073,9.193-10.629c-0.819-1.833-4.58-8.433,1.02-14.022
	c2.292-2.303,4.764-3.029,6.996-3.029c3.337,0,6.143,1.621,7.028,2.008C40.075,24.144,42.05,16.826,50,16.826 M50,14.19
	c-5.465,0-9.514,2.788-12.063,8.296c-1.477-0.568-3.412-1.111-5.592-1.111c-3.369,0-6.352,1.28-8.864,3.806
	c-5.169,5.159-3.974,10.991-2.673,14.417C15.292,42.104,12.5,46.162,12.5,51.69c0,5.477,2.793,9.528,8.312,12.071
	c-2.134,5.689-1.238,10.539,2.676,14.445c2.57,2.572,5.376,3.825,8.575,3.825c2.003,0,3.985-0.518,5.821-1.198
	c2.495,5.547,6.562,8.355,12.116,8.355c5.495,0,9.554-2.809,12.092-8.357c1.836,0.685,3.821,1.205,5.834,1.205
	c3.202,0,6.01-1.254,8.588-3.834c5.162-5.165,3.974-10.99,2.674-14.417C84.705,61.291,87.5,57.23,87.5,51.69
	c0-7.33-4.958-10.599-8.31-12.094c2.13-5.673,1.233-10.517-2.679-14.422c-2.51-2.514-5.481-3.79-8.833-3.79
	c-2.15,0-4.094,0.544-5.588,1.111C59.594,16.981,55.534,14.19,50,14.19L50,14.19z M63.333,40.275l-1.606-1.607
	c-0.449-0.449-1.172-0.449-1.608,0L36.667,62.12c-0.455,0.437-0.455,1.172,0,1.608l1.595,1.62c0.449,0.436,1.178,0.436,1.614,0
	l23.458-23.466C63.782,41.44,63.782,40.724,63.333,40.275L63.333,40.275z M47.72,42.88c0-3.764-3.065-6.829-6.841-6.829
	c-3.763,0-6.829,3.065-6.829,6.829c0,3.775,3.065,6.841,6.829,6.841C44.654,49.721,47.72,46.655,47.72,42.88z M38.604,42.88
	c0-1.246,1.016-2.274,2.274-2.274s2.281,1.028,2.281,2.274c0,1.271-1.022,2.286-2.281,2.286S38.604,44.15,38.604,42.88z
	 M59.109,54.289c-3.763,0-6.835,3.059-6.835,6.828s3.072,6.842,6.835,6.842c3.77,0,6.841-3.072,6.841-6.842
	S62.879,54.289,59.109,54.289z M59.109,63.403c-1.259,0-2.281-1.021-2.281-2.286c0-1.258,1.022-2.273,2.281-2.273
	s2.28,1.016,2.28,2.273C61.39,62.382,60.368,63.403,59.109,63.403z"/>
</svg>
