<?xml version="1.0" encoding="utf-8"?>
<!-- Generator: Adobe Illustrator 16.0.0, SVG Export Plug-In . SVG Version: 6.00 Build 0)  -->
<!DOCTYPE svg PUBLIC "-//W3C//DTD SVG 1.1//EN" "http://www.w3.org/Graphics/SVG/1.1/DTD/svg11.dtd">
<svg version="1.1" id="Layer_1" xmlns="http://www.w3.org/2000/svg" xmlns:xlink="http://www.w3.org/1999/xlink" x="0px" y="0px"
	 width="100px" height="100px" viewBox="0 0 100 100" enable-background="new 0 0 100 100" xml:space="preserve">
<path fill="#58595B" d="M80.558,20.624H19.442c-4.594,0-8.332,3.739-8.332,8.334v42.085c0,4.595,3.737,8.333,8.332,8.333h61.115
	c4.594,0,8.331-3.738,8.331-8.333V28.958C88.889,24.362,85.151,20.624,80.558,20.624z M19.442,23.402h61.115
	c3.062,0,5.554,2.492,5.554,5.556v8.46H13.889v-8.46C13.889,25.894,16.38,23.402,19.442,23.402z M80.558,76.599H19.442
	c-3.062,0-5.553-2.492-5.553-5.556V46.676h72.222v24.367C86.111,74.106,83.62,76.599,80.558,76.599z M57.719,59.396h20.752v6.533
	H57.719V59.396z"/>
</svg>
