<?xml version="1.0" encoding="utf-8"?>
<!-- Generator: Adobe Illustrator 16.0.0, SVG Export Plug-In . SVG Version: 6.00 Build 0)  -->
<!DOCTYPE svg PUBLIC "-//W3C//DTD SVG 1.1//EN" "http://www.w3.org/Graphics/SVG/1.1/DTD/svg11.dtd">
<svg version="1.1" id="Layer_1" xmlns="http://www.w3.org/2000/svg" xmlns:xlink="http://www.w3.org/1999/xlink" x="0px" y="0px"
	 width="100px" height="100px" viewBox="0 0 100 100" enable-background="new 0 0 100 100" xml:space="preserve">
<path fill="#58595B" d="M50,16.826c8.104,0,10.073,7.7,10.624,9.193c1.086-0.483,3.834-1.998,7.053-1.998
	c2.229,0,4.684,0.724,6.973,3.019c5.722,5.713,1.702,12.524,1.012,14.022c1.9,0.713,9.203,2.694,9.203,10.629
	c0,8.106-7.705,10.076-9.203,10.627c0.827,1.846,4.577,8.429-1.012,14.023c-2.222,2.224-4.438,3.062-6.724,3.062
	c-2.338,0-4.746-0.876-7.302-2.041c-0.699,1.89-2.674,9.192-10.624,9.192c-8.114,0-10.077-7.705-10.627-9.192
	c-2.569,1.164-4.978,2.034-7.31,2.034c-2.286,0-4.498-0.837-6.714-3.055c-5.724-5.71-1.702-12.529-1.02-14.023
	c-1.891-0.702-9.193-2.678-9.193-10.627c0-8.106,7.704-10.073,9.193-10.629c-0.819-1.833-4.58-8.433,1.02-14.022
	c2.292-2.303,4.764-3.029,6.996-3.029c3.337,0,6.143,1.621,7.028,2.008C40.075,24.144,42.05,16.826,50,16.826 M50,14.19
	c-5.465,0-9.514,2.788-12.063,8.296c-1.477-0.568-3.412-1.111-5.592-1.111c-3.369,0-6.352,1.28-8.864,3.806
	c-5.169,5.159-3.974,10.991-2.673,14.417C15.292,42.104,12.5,46.162,12.5,51.69c0,5.477,2.793,9.528,8.312,12.071
	c-2.134,5.689-1.238,10.539,2.676,14.445c2.57,2.572,5.376,3.825,8.575,3.825c2.003,0,3.985-0.518,5.821-1.198
	c2.495,5.547,6.562,8.355,12.116,8.355c5.495,0,9.554-2.809,12.092-8.357c1.836,0.685,3.821,1.205,5.834,1.205
	c3.202,0,6.01-1.254,8.588-3.834c5.162-5.165,3.974-10.99,2.674-14.417C84.705,61.291,87.5,57.23,87.5,51.69
	c0-7.33-4.958-10.599-8.31-12.094c2.13-5.673,1.233-10.517-2.679-14.422c-2.51-2.514-5.481-3.79-8.833-3.79
	c-2.15,0-4.094,0.544-5.588,1.111C59.594,16.981,55.534,14.19,50,14.19L50,14.19z M54.409,50.792l-7.677-2.195
	c-1.142-0.313-1.913-1.373-1.913-2.553c0-1.464,1.179-2.656,2.644-2.656h4.783c1.079,0,2.096,0.335,2.933,0.949
	c0.403,0.277,0.947,0.195,1.279-0.142l1.491-1.488c0.44-0.453,0.368-1.191-0.13-1.577c-1.607-1.225-3.53-1.891-5.573-1.891h-0.187
	v-3.11c0-0.572-0.442-1.044-1.027-1.044h-2.066c-0.585,0-1.027,0.473-1.027,1.044v3.11h-0.476c-3.984,0-7.145,3.404-6.782,7.452
	c0.272,2.888,2.492,5.208,5.243,6.004l7.338,2.076c1.112,0.334,1.917,1.397,1.917,2.57c0,1.447-1.179,2.656-2.65,2.656h-4.786
	c-1.07,0-2.096-0.34-2.923-0.952c-0.403-0.284-0.949-0.194-1.29,0.141l-1.487,1.492c-0.436,0.46-0.362,1.209,0.136,1.578
	c1.574,1.226,3.521,1.885,5.564,1.885h0.197v3.125c0,0.563,0.442,1.038,1.027,1.038h2.066c0.585,0,1.027-0.475,1.027-1.038v-3.125
	h0.187c2.945,0,5.772-1.762,6.726-4.553C60.272,55.725,58.023,51.826,54.409,50.792L54.409,50.792z"/>
</svg>
