<?xml version="1.0" encoding="utf-8"?>
<!-- Generator: Adobe Illustrator 16.0.0, SVG Export Plug-In . SVG Version: 6.00 Build 0)  -->
<!DOCTYPE svg PUBLIC "-//W3C//DTD SVG 1.1//EN" "http://www.w3.org/Graphics/SVG/1.1/DTD/svg11.dtd">
<svg version="1.1" id="Layer_1" xmlns="http://www.w3.org/2000/svg" xmlns:xlink="http://www.w3.org/1999/xlink" x="0px" y="0px"
	 width="100px" height="100px" viewBox="0 0 100 100" enable-background="new 0 0 100 100" xml:space="preserve">
<g>
	<path fill="#58595B" d="M50,11.104c-21.447,0-38.896,17.449-38.896,38.896S28.553,88.896,50,88.896S88.896,71.447,88.896,50
		S71.447,11.104,50,11.104z M27.458,78.174c0.005-0.021,0.014-0.038,0.018-0.059C29.663,67.507,39.136,59.808,50,59.808
		c10.889,0,20.356,7.718,22.549,18.36c-6.184,4.96-14.023,7.938-22.549,7.938C41.478,86.105,33.641,83.131,27.458,78.174z
		 M74.908,76.1C71.897,64.952,61.687,57.017,50,57.017c-11.683,0-21.91,7.951-24.894,19.097C18.208,69.533,13.896,60.264,13.896,50
		c0-19.908,16.196-36.105,36.104-36.105S86.104,30.092,86.104,50C86.104,60.256,81.799,69.521,74.908,76.1z"/>
	<path fill="#58595B" d="M50,23.838c-7.713,0-13.988,6.276-13.988,13.992c0,7.708,6.275,13.979,13.988,13.979
		c7.715,0,13.991-6.271,13.991-13.979C63.991,30.114,57.715,23.838,50,23.838z M50,49.019c-6.174,0-11.197-5.02-11.197-11.188
		c0-6.177,5.023-11.201,11.197-11.201c6.176,0,11.2,5.024,11.2,11.201C61.2,43.999,56.176,49.019,50,49.019z"/>
</g>
</svg>
