<?xml version="1.0" encoding="utf-8"?>
<!-- Generator: Adobe Illustrator 16.0.0, SVG Export Plug-In . SVG Version: 6.00 Build 0)  -->
<!DOCTYPE svg PUBLIC "-//W3C//DTD SVG 1.1//EN" "http://www.w3.org/Graphics/SVG/1.1/DTD/svg11.dtd">
<svg version="1.1" id="Layer_1" xmlns="http://www.w3.org/2000/svg" xmlns:xlink="http://www.w3.org/1999/xlink" x="0px" y="0px"
	 width="100px" height="100px" viewBox="0 0 100 100" enable-background="new 0 0 100 100" xml:space="preserve">
<g>
	<path fill="#58595B" d="M87.89,77.805H46.211c-0.709,0-1.284-0.574-1.284-1.283v-8.525c0-8.335,15.613-11.702,22.124-11.702
		c6.51,0,22.121,3.367,22.121,11.702v8.525C89.173,77.23,88.599,77.805,87.89,77.805z M47.495,75.238h39.111v-7.242
		c0-5.667-12.661-9.136-19.555-9.136c-6.895,0-19.557,3.469-19.557,9.136V75.238z M38.635,77.805H12.11
		c-0.709,0-1.284-0.574-1.284-1.283v-9.47c0-10.359,19.625-14.544,27.809-14.544c2.587,0,5.87,0.389,9.243,1.094
		c0.525,0.11,0.927,0.535,1.006,1.065c0.08,0.53-0.178,1.055-0.647,1.314c-6.875,3.806-8.318,8.634-8.318,12.015v8.525
		C39.919,77.23,39.344,77.805,38.635,77.805z M13.394,75.238h23.958v-7.242c0-2.917,0.96-8.094,6.822-12.454
		c-2.035-0.305-3.936-0.468-5.539-0.468c-8.899,0-25.241,4.548-25.241,11.978V75.238z M67.052,51.283
		c-5.931,0-10.756-4.823-10.756-10.752s4.825-10.753,10.756-10.753c5.909,0,10.717,4.824,10.717,10.753S72.961,51.283,67.052,51.283
		z M67.052,32.345c-4.516,0-8.189,3.672-8.189,8.186s3.674,8.186,8.189,8.186c4.494,0,8.15-3.672,8.15-8.186
		S71.546,32.345,67.052,32.345z M38.635,47.499c-6.976,0-12.652-5.676-12.652-12.652s5.676-12.652,12.652-12.652
		c6.953,0,12.61,5.676,12.61,12.652S45.588,47.499,38.635,47.499z M38.635,24.762c-5.561,0-10.084,4.524-10.084,10.084
		s4.524,10.084,10.084,10.084c5.538,0,10.043-4.524,10.043-10.084S44.173,24.762,38.635,24.762z"/>
</g>
</svg>
