<?xml version="1.0" encoding="utf-8"?>
<!-- Generator: Adobe Illustrator 16.0.0, SVG Export Plug-In . SVG Version: 6.00 Build 0)  -->
<!DOCTYPE svg PUBLIC "-//W3C//DTD SVG 1.1//EN" "http://www.w3.org/Graphics/SVG/1.1/DTD/svg11.dtd">
<svg version="1.1" id="Layer_1" xmlns="http://www.w3.org/2000/svg" xmlns:xlink="http://www.w3.org/1999/xlink" x="0px" y="0px"
	 width="100px" height="100px" viewBox="0 0 100 100" enable-background="new 0 0 100 100" xml:space="preserve">
<path fill="#58595B" d="M50,86.274c-20.001,0-36.273-16.274-36.273-36.278c0-20,16.272-36.271,36.273-36.271
	s36.273,16.271,36.273,36.271C86.273,70,70.001,86.274,50,86.274z M50,16.329c-18.566,0-33.67,15.103-33.67,33.667
	c0,18.568,15.104,33.675,33.67,33.675c18.565,0,33.67-15.106,33.67-33.675C83.67,31.432,68.565,16.329,50,16.329z M38.278,67.679
	c0.254-0.353,0.175-0.846-0.179-1.101c-5.329-3.842-8.511-10.041-8.511-16.582c0-4.397,1.382-8.588,3.997-12.12
	c0.259-0.35,0.186-0.844-0.165-1.103c-0.349-0.26-0.845-0.185-1.103,0.165c-2.818,3.806-4.308,8.321-4.308,13.059
	c0,7.047,3.427,13.724,9.166,17.861c0.14,0.101,0.301,0.149,0.461,0.149C37.882,68.007,38.124,67.893,38.278,67.679z M65.017,66.059
	c4.428-4.135,6.968-9.989,6.968-16.062c0-5.866-2.286-11.386-6.436-15.543c-0.309-0.309-0.808-0.308-1.116,0
	c-0.308,0.308-0.309,0.807-0.001,1.116c3.853,3.858,5.975,8.982,5.975,14.428c0,5.638-2.356,11.072-6.466,14.91
	c-0.318,0.297-0.336,0.796-0.038,1.114c0.155,0.167,0.365,0.251,0.576,0.251C64.672,66.271,64.865,66.201,65.017,66.059z
	 M43.689,76.444c-1.334,0-2.419-1.086-2.419-2.42V46.009h-1.158c-2.242,0-4.065-1.826-4.065-4.069V23.746
	c0-1.332,1.085-2.416,2.419-2.416c1.331,0,2.414,1.084,2.414,2.416v9.639h0.391v-9.639c0-1.332,1.085-2.416,2.419-2.416
	c1.331,0,2.414,1.084,2.414,2.416v9.639h0.286v-9.639c0-1.332,1.085-2.416,2.419-2.416c1.331,0,2.413,1.084,2.413,2.416v18.194
	c0,2.244-1.824,4.069-4.065,4.069h-1.053v28.016C46.103,75.358,45.021,76.444,43.689,76.444z M38.466,23.065
	c-0.377,0-0.684,0.305-0.684,0.681v18.194c0,1.287,1.045,2.334,2.33,2.334h2.026c0.479,0,0.868,0.389,0.868,0.868v28.883
	c0,0.377,0.307,0.684,0.684,0.684c0.374,0,0.678-0.307,0.678-0.684V45.141c0-0.479,0.389-0.868,0.868-0.868h1.92
	c1.285,0,2.33-1.047,2.33-2.334V23.746c0-0.382-0.298-0.681-0.678-0.681c-0.377,0-0.684,0.305-0.684,0.681V34.23
	c0,0.423-0.306,0.785-0.723,0.855c0.064-0.003-0.084,0.034-0.245,0.034h-1.92c-0.479,0-0.868-0.389-0.868-0.868V23.746
	c0-0.382-0.298-0.681-0.678-0.681c-0.377,0-0.684,0.305-0.684,0.681v10.506c0,0.479-0.389,0.868-0.868,0.868h-2.026
	c-0.083,0-0.222-0.023-0.302-0.047c-0.427-0.062-0.667-0.412-0.667-0.843V23.746C39.144,23.364,38.846,23.065,38.466,23.065z
	 M59.449,76.444c-1.333,0-2.418-1.086-2.418-2.42V46.01c-1.22-0.116-3.623-0.781-4.284-4.141
	c-1.273-6.583,1.118-17.551,7.906-20.469c0.27-0.114,0.575-0.088,0.82,0.073c0.243,0.161,0.391,0.433,0.391,0.725v51.827
	C61.864,75.358,60.78,76.444,59.449,76.444z M57.894,44.274c0.209,0,0.415,0.075,0.573,0.214c0.188,0.165,0.301,0.402,0.301,0.653
	v28.883c0,0.377,0.306,0.684,0.682,0.684c0.374,0,0.679-0.307,0.679-0.684V23.698c-3.607,2.629-7.205,9.945-5.678,17.838
	c0.473,2.402,2.107,2.761,3.04,2.761c0.159,0,0.264-0.012,0.286-0.015C57.815,44.277,57.854,44.274,57.894,44.274z"/>
</svg>
