<?xml version="1.0" encoding="utf-8"?>
<!-- Generator: Adobe Illustrator 16.0.0, SVG Export Plug-In . SVG Version: 6.00 Build 0)  -->
<!DOCTYPE svg PUBLIC "-//W3C//DTD SVG 1.1//EN" "http://www.w3.org/Graphics/SVG/1.1/DTD/svg11.dtd">
<svg version="1.1" id="Layer_1" xmlns="http://www.w3.org/2000/svg" xmlns:xlink="http://www.w3.org/1999/xlink" x="0px" y="0px"
	 width="100px" height="100px" viewBox="0 0 100 100" enable-background="new 0 0 100 100" xml:space="preserve">
<path fill="#58595B" d="M77.997,22.943H22.009c-4.289,0-7.778,3.489-7.778,7.778v38.557c0,4.289,3.489,7.778,7.778,7.778h55.988
	c4.286,0,7.772-3.489,7.772-7.778V30.722C85.77,26.433,82.283,22.943,77.997,22.943z M58.603,49.711l23.95-20.894
	c0.245,0.587,0.383,1.229,0.383,1.904v38.557c0,0.511-0.1,0.993-0.244,1.457L58.603,49.711z M77.997,25.778
	c1.021,0,1.971,0.312,2.759,0.845L52.097,51.624c-2,1.745-3.733,0.263-4.12-0.106L19.382,26.55c0.763-0.482,1.659-0.771,2.627-0.771
	H77.997z M17.273,70.621c-0.122-0.43-0.208-0.874-0.208-1.343V30.722c0-0.728,0.167-1.414,0.451-2.037l23.9,20.865L17.273,70.621z
	 M22.009,74.223c-1.219,0-2.321-0.46-3.184-1.193l24.747-21.599l2.471,2.157c0.787,0.786,2.308,1.72,4.106,1.72
	c1.192,0,2.507-0.411,3.811-1.547l2.487-2.17L81.092,73.1c-0.85,0.691-1.918,1.123-3.095,1.123H22.009z"/>
</svg>
