<?xml version="1.0" encoding="utf-8"?>
<!-- Generator: Adobe Illustrator 16.0.0, SVG Export Plug-In . SVG Version: 6.00 Build 0)  -->
<!DOCTYPE svg PUBLIC "-//W3C//DTD SVG 1.1//EN" "http://www.w3.org/Graphics/SVG/1.1/DTD/svg11.dtd">
<svg version="1.1" id="Layer_1" xmlns="http://www.w3.org/2000/svg" xmlns:xlink="http://www.w3.org/1999/xlink" x="0px" y="0px"
	 width="100px" height="100px" viewBox="0 0 100 100" enable-background="new 0 0 100 100" xml:space="preserve">
<g>
	<path fill-rule="evenodd" clip-rule="evenodd" fill="#58595B" d="M27.521,24.857c0-1.277-0.004-2.482,0-3.687
		c0.004-1.342,0.352-1.711,1.693-1.712c7.47-0.006,14.938-0.002,22.409,0c6.219,0.002,12.438,0.005,18.656,0.009
		c0.257,0,0.517-0.007,0.773,0.005c1.171,0.059,1.487,0.38,1.498,1.551c0.009,1.245,0.002,2.489,0.002,3.683
		c0.46,0.311,0.878,0.196,1.268,0.197c3.606,0.01,7.211,0.005,10.817,0.005c1.449,0,1.67,0.202,1.672,1.658
		c0.009,6.55,0.011,13.1,0.011,19.649c0,10.708-0.007,21.417-0.009,32.125c0,0.146,0,0.293,0,0.44
		c-0.015,1.569-0.207,1.764-1.805,1.764c-20.128,0-40.256,0-60.385,0c-2.87,0-5.738,0.005-8.609-0.002
		c-1.522-0.002-1.832-0.302-1.834-1.78c-0.002-4.562,0.004-9.125,0.006-13.688c0-9.897-0.002-19.797-0.002-29.696
		c0-2.943-0.006-5.887,0.002-8.831c0.004-1.328,0.354-1.643,1.736-1.643c3.825,0.002,7.652,0.002,11.479,0.001
		C27.046,24.905,27.194,24.883,27.521,24.857z M70.336,21.675c-13.598,0-27.08,0-40.601,0c0,18.919,0,37.766,0,56.652
		c4.148,0,8.211,0,12.301,0c0-4.497,0-8.92,0-13.322c-1.855-0.395-2.382-1.02-2.41-2.796c-0.008-0.443-0.006-0.886,0.02-1.325
		c0.081-1.385,0.834-2.146,2.22-2.249c0.368-0.028,0.736-0.025,1.104-0.025c2.868-0.003,5.738-0.003,8.607,0
		c2.173,0.002,4.343-0.02,6.512,0.027c1.477,0.032,2.279,0.896,2.326,2.376c0.018,0.552,0.023,1.106,0.005,1.656
		c-0.041,1.156-0.659,1.912-1.79,2.207c-0.207,0.054-0.445,0.03-0.625,0.251c0,4.364,0,8.756,0,13.2c4.148,0,8.211,0,12.331,0
		C70.336,59.429,70.336,40.604,70.336,21.675z M84.177,78.338c0-17.158,0-34.089,0-51.088l-11.561-0.062c0,17.017,0,34.095,0,51.15
		C76.501,78.338,80.307,78.338,84.177,78.338z M15.905,27.119c0,17.102,0,34.14,0,51.21c3.885,0,7.691,0,11.561,0
		c0-17.106,0-34.142,0-51.21C23.579,27.119,19.771,27.119,15.905,27.119z M55.732,65c-1.55,0-3.035,0-4.545,0
		c0,4.479,0,8.877,0,13.318c1.55,0,3.031,0,4.545,0C55.732,73.841,55.732,69.444,55.732,65z M44.348,64.989c0,4.48,0,8.877,0,13.372
		c1.543,0.036,3.025,0.083,4.553-0.018c0-4.492,0-8.887,0-13.354C47.387,64.989,45.932,64.989,44.348,64.989z M41.805,62.812
		c5.512,0,10.939,0,16.382,0c0.246-0.685,0.201-1.318,0-2.016c-5.47,0-10.918,0-16.44,0C41.683,61.485,41.619,62.089,41.805,62.812z
		"/>
	<path fill-rule="evenodd" clip-rule="evenodd" fill="#58595B" d="M64.598,33.738c0,1.026,0.004,2.053-0.004,3.079
		c-0.002,0.291,0.004,0.593-0.064,0.873c-0.131,0.552-0.616,0.918-1.113,0.868c-0.548-0.056-0.936-0.403-0.941-0.915
		c-0.036-2.673-0.041-5.349,0-8.022c0.009-0.557,0.559-0.939,1.055-0.931c0.49,0.009,0.948,0.398,1.018,0.983
		c0.065,0.579,0.036,1.17,0.04,1.756c0.005,0.77,0.002,1.539,0.002,2.309C64.592,33.738,64.594,33.738,64.598,33.738z"/>
	<path fill-rule="evenodd" clip-rule="evenodd" fill="#58595B" d="M62.428,66.165c0-1.142-0.003-2.282,0.002-3.423
		c0.002-0.255-0.007-0.524,0.064-0.765c0.151-0.507,0.511-0.823,1.053-0.807c0.49,0.015,0.824,0.323,0.954,0.786
		c0.08,0.277,0.091,0.582,0.091,0.873c0.004,2.209-0.003,4.416-0.005,6.622c0,0.039,0.002,0.075,0,0.111
		c-0.034,0.95-0.456,1.494-1.128,1.462c-0.64-0.032-1.025-0.55-1.034-1.44c-0.013-1.139-0.002-2.279-0.002-3.42
		C62.423,66.165,62.425,66.165,62.428,66.165z"/>
	<path fill-rule="evenodd" clip-rule="evenodd" fill="#58595B" d="M37.655,66.077c0,1.098,0.004,2.198-0.002,3.298
		c-0.002,0.292,0.004,0.596-0.075,0.869c-0.13,0.458-0.46,0.754-0.955,0.775c-0.495,0.021-0.818-0.266-1.025-0.693
		c-0.135-0.274-0.101-0.572-0.103-0.865c0-2.234-0.004-4.469,0.002-6.704c0.004-1.065,0.385-1.613,1.083-1.599
		c0.691,0.013,1.062,0.559,1.072,1.62C37.666,63.879,37.655,64.979,37.655,66.077z"/>
	<path fill-rule="evenodd" clip-rule="evenodd" fill="#58595B" d="M35.486,33.55c0-1.026-0.004-2.052,0.002-3.079
		c0.002-0.292-0.006-0.593,0.054-0.875c0.12-0.564,0.586-0.941,1.087-0.899c0.546,0.045,0.86,0.384,0.98,0.891
		c0.06,0.245,0.042,0.51,0.042,0.765c0.007,2.2,0.011,4.399,0.009,6.597c0,1.045-0.385,1.608-1.079,1.617
		c-0.685,0.007-1.075-0.557-1.085-1.61c-0.009-1.135-0.002-2.272-0.002-3.408C35.493,33.55,35.488,33.55,35.486,33.55z"/>
	<path fill-rule="evenodd" clip-rule="evenodd" fill="#58595B" d="M35.495,49.743c0-1.065-0.007-2.131,0.004-3.196
		c0.004-0.291,0.02-0.592,0.099-0.868c0.124-0.425,0.435-0.669,0.891-0.697c0.497-0.031,0.843,0.185,1.057,0.633
		c0.133,0.278,0.116,0.573,0.114,0.865c0,2.241-0.002,4.482-0.004,6.723c0,0.036,0,0.075,0,0.111
		c-0.026,1.004-0.381,1.481-1.094,1.464c-0.689-0.017-1.053-0.503-1.068-1.509c-0.017-1.175-0.004-2.353-0.004-3.527
		C35.491,49.743,35.493,49.743,35.495,49.743z"/>
	<path fill-rule="evenodd" clip-rule="evenodd" fill="#58595B" d="M44.498,33.583c0-1.099-0.004-2.198,0.004-3.297
		c0.002-0.291-0.002-0.597,0.079-0.87c0.142-0.468,0.503-0.719,0.993-0.716c0.443,0.003,0.76,0.235,0.925,0.653
		c0.152,0.383,0.144,0.789,0.146,1.192c0.002,2.088,0.011,4.176,0.009,6.264c-0.002,0.29-0.013,0.59-0.082,0.87
		c-0.139,0.575-0.593,0.922-1.089,0.886c-0.52-0.035-0.908-0.411-0.953-1.027c-0.047-0.656-0.023-1.317-0.026-1.977
		c-0.004-0.659-0.002-1.319-0.002-1.978C44.502,33.583,44.5,33.583,44.498,33.583z"/>
	<path fill-rule="evenodd" clip-rule="evenodd" fill="#58595B" d="M64.587,49.929c0,1.102,0.002,2.207,0,3.309
		c-0.002,0.293,0.015,0.587-0.099,0.869c-0.167,0.42-0.469,0.655-0.918,0.672c-0.49,0.018-0.844-0.201-1.04-0.661
		c-0.133-0.316-0.101-0.65-0.103-0.98c-0.003-2.205,0-4.41,0.002-6.616c0-0.146-0.009-0.295,0.006-0.439
		c0.086-0.736,0.488-1.127,1.122-1.099c0.582,0.026,0.968,0.401,1.017,1.088c0.043,0.585,0.013,1.175,0.013,1.764
		C64.589,48.533,64.587,49.231,64.587,49.929z"/>
	<path fill-rule="evenodd" clip-rule="evenodd" fill="#58595B" d="M55.584,33.591c0.002,1.104,0.007,2.208-0.002,3.311
		c-0.002,0.293,0.002,0.596-0.066,0.878c-0.117,0.48-0.469,0.75-0.954,0.777c-0.499,0.028-0.851-0.237-0.991-0.712
		c-0.082-0.277-0.122-0.578-0.124-0.868c-0.013-2.208-0.018-4.416-0.016-6.624c0-0.254,0.023-0.517,0.084-0.764
		c0.147-0.592,0.575-0.933,1.085-0.896c0.522,0.038,0.914,0.412,0.952,1.035c0.05,0.807,0.026,1.618,0.032,2.428
		C55.586,32.634,55.584,33.113,55.584,33.591z"/>
	<path fill-rule="evenodd" clip-rule="evenodd" fill="#58595B" d="M55.576,49.999c0,1.102,0.006,2.203-0.003,3.304
		c-0.008,1.023-0.354,1.505-1.044,1.496c-0.677-0.009-1.068-0.501-1.083-1.507c-0.026-1.982-0.011-3.965-0.009-5.948
		c0-0.44-0.018-0.885,0.041-1.32c0.092-0.698,0.475-1.046,1.059-1.044c0.621,0.003,1.02,0.41,1.034,1.164
		c0.025,1.285,0.007,2.57,0.007,3.856H55.576z"/>
	<path fill-rule="evenodd" clip-rule="evenodd" fill="#58595B" d="M44.506,49.856c0-1.065,0-2.13,0.002-3.194
		c0-0.257-0.008-0.516,0.024-0.77c0.068-0.544,0.376-0.868,0.933-0.907c0.548-0.039,0.927,0.222,1.077,0.744
		c0.079,0.276,0.101,0.578,0.101,0.868c0.006,2.166,0.002,4.333,0,6.5c0,0.184,0.002,0.37-0.021,0.55
		c-0.099,0.764-0.481,1.166-1.083,1.151c-0.591-0.015-0.987-0.451-1.023-1.196c-0.03-0.623-0.008-1.248-0.008-1.873
		C44.504,51.106,44.506,50.48,44.506,49.856z"/>
	<path fill-rule="evenodd" clip-rule="evenodd" fill="#58595B" d="M79.425,51.905c0,0.993,0.002,1.988-0.002,2.981
		c0,0.257,0.006,0.521-0.048,0.769c-0.103,0.485-0.43,0.762-0.924,0.803c-0.452,0.038-0.784-0.185-0.982-0.576
		c-0.172-0.334-0.195-0.702-0.195-1.074c0.011-1.877,0.011-3.755,0.018-5.632c0-0.22,0-0.444,0.034-0.66
		c0.115-0.741,0.539-1.128,1.149-1.072c0.564,0.051,0.916,0.446,0.946,1.149c0.029,0.661,0.004,1.325,0.004,1.987
		C79.425,51.022,79.425,51.464,79.425,51.905z"/>
	<path fill-rule="evenodd" clip-rule="evenodd" fill="#58595B" d="M79.425,66.552c0,1.025,0.011,2.049-0.002,3.076
		c-0.013,0.918-0.375,1.404-1.021,1.406c-0.625,0.002-1.062-0.505-1.098-1.389c-0.039-0.985-0.013-1.976-0.015-2.963
		c-0.003-1.063-0.009-2.123-0.007-3.188c0-0.37,0.036-0.742,0.25-1.053c0.283-0.409,0.698-0.528,1.163-0.396
		c0.483,0.137,0.708,0.507,0.715,0.99c0.011,1.171,0.002,2.344,0.002,3.513C79.416,66.55,79.421,66.55,79.425,66.552z"/>
	<path fill-rule="evenodd" clip-rule="evenodd" fill="#58595B" d="M79.423,37.441c0,1.067,0.019,2.134-0.007,3.201
		c-0.02,0.805-0.349,1.205-0.95,1.253c-0.645,0.05-1.128-0.368-1.143-1.193c-0.046-2.207-0.043-4.416-0.005-6.623
		c0.016-0.816,0.503-1.254,1.135-1.203c0.593,0.048,0.943,0.464,0.963,1.252C79.441,35.232,79.423,36.336,79.423,37.441z"/>
	<path fill-rule="evenodd" clip-rule="evenodd" fill="#58595B" d="M20.666,51.933c0-1.136-0.03-2.272,0.011-3.405
		c0.03-0.801,0.646-1.26,1.316-1.054c0.473,0.146,0.745,0.5,0.757,0.976c0.071,2.343,0.116,4.688-0.021,7.028
		c-0.039,0.668-0.531,1.021-1.098,0.984c-0.572-0.036-0.938-0.413-0.957-1.121c-0.034-1.135-0.011-2.271-0.011-3.408
		C20.666,51.933,20.666,51.933,20.666,51.933z"/>
	<path fill-rule="evenodd" clip-rule="evenodd" fill="#58595B" d="M20.659,37.417c0-1.099,0.002-2.197,0-3.296
		c0-0.378,0.064-0.73,0.368-0.994c0.507-0.44,1.276-0.297,1.584,0.312c0.169,0.332,0.197,0.701,0.197,1.071
		c-0.006,1.941-0.009,3.881-0.017,5.823c-0.002,0.218-0.013,0.442-0.062,0.654c-0.137,0.606-0.521,0.925-1.06,0.912
		c-0.58-0.015-0.982-0.4-1.002-1.077c-0.034-1.134-0.011-2.27-0.011-3.405C20.659,37.417,20.659,37.417,20.659,37.417z"/>
	<path fill-rule="evenodd" clip-rule="evenodd" fill="#58595B" d="M20.649,66.528c0-0.988-0.004-1.978,0.004-2.967
		c0.002-0.291-0.008-0.599,0.077-0.871c0.128-0.413,0.443-0.661,0.895-0.693c0.451-0.032,0.783,0.167,0.986,0.559
		c0.174,0.334,0.184,0.704,0.184,1.075c0.002,1.941,0.007,3.883,0.009,5.826c0,0.146,0.002,0.295-0.019,0.437
		c-0.103,0.719-0.538,1.16-1.109,1.143c-0.58-0.017-0.97-0.464-1.008-1.209c-0.028-0.548-0.013-1.098-0.015-1.648
		c-0.002-0.55,0-1.098,0-1.65C20.651,66.528,20.651,66.528,20.649,66.528z"/>
</g>
</svg>
