<?xml version="1.0" encoding="utf-8"?>
<!-- Generator: Adobe Illustrator 16.0.0, SVG Export Plug-In . SVG Version: 6.00 Build 0)  -->
<!DOCTYPE svg PUBLIC "-//W3C//DTD SVG 1.1//EN" "http://www.w3.org/Graphics/SVG/1.1/DTD/svg11.dtd">
<svg version="1.1" id="Layer_1" xmlns="http://www.w3.org/2000/svg" xmlns:xlink="http://www.w3.org/1999/xlink" x="0px" y="0px"
	 width="100px" height="100px" viewBox="0 0 100 100" enable-background="new 0 0 100 100" xml:space="preserve">
<path fill="#404041" d="M38.313,13.311L24.748,26.868v59.786l7.134-7.495l6.079,6.084l6.095-6.095l5.957,6.132l5.853-6.151
	l6.49,6.101l5.854-6.048l7.042,7.508V13.311H38.313z M37.552,17.743v8.364h-8.369L37.552,17.743z M72.654,80.123l-4.415-4.707
	l-5.97,6.167l-6.506-6.114l-5.771,6.063l-5.911-6.083l-6.12,6.12l-6.125-6.131l-4.491,4.72V28.705H40.15V15.908h32.504V80.123z
	 M32.623,67.929h34.76v2.189h-34.76V67.929z M32.623,59.142h34.76v2.189h-34.76V59.142z M32.623,50.358h34.76v2.189h-34.76V50.358z
	 M32.623,41.58h34.76v2.189h-34.76V41.58z M32.623,32.803h34.76v2.189h-34.76V32.803z M50.008,26.205v-2.189h17.375v2.189H50.008z"
	/>
</svg>
