<?xml version="1.0" encoding="utf-8"?>
<!-- Generator: Adobe Illustrator 16.0.0, SVG Export Plug-In . SVG Version: 6.00 Build 0)  -->
<!DOCTYPE svg PUBLIC "-//W3C//DTD SVG 1.1//EN" "http://www.w3.org/Graphics/SVG/1.1/DTD/svg11.dtd">
<svg version="1.1" id="Layer_1" xmlns="http://www.w3.org/2000/svg" xmlns:xlink="http://www.w3.org/1999/xlink" x="0px" y="0px"
	 width="100px" height="100px" viewBox="0 0 100 100" enable-background="new 0 0 100 100" xml:space="preserve">
<path fill-rule="evenodd" clip-rule="evenodd" fill="#58595B" d="M36.403,30.59c-0.41-0.133-0.816-0.258-1.217-0.396
	c-1.5-0.505-2.933-1.145-4.198-2.115c-2.229-1.7-3.293-3.979-3.272-6.763c0.013-1.421,0.271-2.803,0.712-4.15
	c0.144-0.436,0.322-0.847,0.55-1.244c1.145-2.056,3.017-2.858,5.292-2.284c1.243,0.308,2.356,0.898,3.416,1.6
	c1.908,1.259,3.587,2.794,5.188,4.404c2.391,2.399,4.561,4.973,6.652,7.63c0.138,0.172,0.287,0.345,0.441,0.549
	c0.242-0.148,0.355-0.366,0.504-0.549c2.458-3.111,5.008-6.118,7.893-8.833c1.445-1.368,2.97-2.646,4.696-3.661
	c1.005-0.589,2.051-1.06,3.214-1.253c1.908-0.298,3.523,0.427,4.57,2.072c0.643,1.038,0.961,2.189,1.194,3.376
	c0.256,1.31,0.341,2.627,0.129,3.945c-0.389,2.362-1.664,4.16-3.614,5.488c-1.359,0.935-2.884,1.535-4.441,2.016
	c-0.143,0.048-0.281,0.08-0.414,0.138c-0.026,0.011-0.059,0.045-0.09,0.08c0.17,0.104,0.356,0.053,0.531,0.053
	c6.954,0,13.904,0.005,20.858-0.008c0.69,0,1.312,0.144,1.817,0.643c0.462,0.451,0.685,1.02,0.685,1.674
	c-0.005,3.254,0,6.495-0.005,9.749c0,0.927-0.426,1.65-1.264,2.036c-0.416,0.188-0.457,0.441-0.457,0.818
	c0.005,2.542,0.005,5.083,0.005,7.628c0,10.036,0,20.072,0,30.113c0,0.313,0,0.622,0,0.931c-0.043,1.237-0.904,2.146-2.137,2.253
	c-0.223,0.021-0.451,0.01-0.675,0.01c-21.995,0-44,0-65.992,0c-0.356,0-0.704,0.011-1.055-0.079
	c-0.961-0.256-1.644-1.068-1.689-2.057c-0.011-0.351-0.011-0.706-0.011-1.062c0-12.49,0-24.992,0.011-37.49
	c0-0.529-0.035-0.896-0.625-1.163c-0.783-0.367-1.11-1.124-1.105-2.006c0-2.473,0-4.959,0-7.446c0-0.707-0.005-1.411,0-2.109
	c0.01-1.522,0.917-2.433,2.447-2.433c5.865-0.008,11.755,0,17.62,0c1.116,0,2.245,0.005,3.358,0c0.154,0,0.308-0.019,0.462-0.029
	C36.389,30.64,36.394,30.619,36.403,30.59z M48.729,64.475c0-6.211,0-12.421,0-18.624c0-0.93,0.048-0.797-0.802-0.797
	c-10.052-0.005-20.107-0.005-30.167-0.005c-1.046,0.005-0.972-0.133-0.972,0.956c0,12.393,0,24.781,0,37.176
	c0,0.149,0.005,0.287,0,0.437c-0.011,0.266,0.09,0.377,0.367,0.356c0.183-0.017,0.371,0,0.555,0c6.667,0,13.32,0,19.987,0
	c3.478,0,6.949,0,10.426-0.006c0.595,0,0.595-0.005,0.606-0.568c0-0.128,0-0.25,0-0.372C48.729,76.843,48.729,70.654,48.729,64.475z
	 M51.271,64.495c0,5.112,0,10.224,0,15.328c0,1.148,0,2.279,0,3.422c0,0.723,0.007,0.723,0.697,0.729c0.041,0,0.085,0,0.127,0
	c10.036,0,20.073,0,30.114,0c0.202,0,0.403-0.011,0.616-0.006c0.255,0.016,0.394-0.085,0.389-0.351c0-0.149,0-0.292,0-0.437
	c0-12.441,0-24.874,0-37.314c0-0.148,0-0.287,0-0.436c0-0.239-0.102-0.388-0.367-0.377c-0.144,0-0.292-0.005-0.436-0.005
	c-3.81,0-7.614,0-11.418,0c-6.359,0-12.714,0-19.069,0c-0.646,0-0.646,0.005-0.653,0.635c0,0.127,0,0.252,0,0.371
	C51.271,52.201,51.271,58.354,51.271,64.495z M31.871,42.475c0,0,0,0,0-0.005c5.396,0,10.804,0,16.205,0
	c0.643,0,0.653-0.005,0.653-0.645c0-2.654,0-5.305,0-7.954c-0.005-0.605-0.011-0.61-0.629-0.61c-10.804,0-21.608,0-32.412,0.005
	c-0.608,0-0.608,0-0.608,0.619c-0.005,2.635-0.005,5.257,0,7.887c0,0.704,0,0.704,0.704,0.704
	C21.146,42.475,26.507,42.475,31.871,42.475z M68.141,42.469c0,0.005,0,0.005,0,0.005c5.376,0,10.758,0,16.13,0
	c0.653,0,0.658,0,0.658-0.635c0.006-1.884,0-3.764,0-5.647c0-0.763,0.006-1.531,0-2.298c0-0.629-0.005-0.629-0.658-0.634
	c-0.06,0-0.122,0-0.181,0c-10.679,0-21.348,0-32.026,0c-0.786,0-0.793,0.005-0.793,0.762c0,2.566,0,5.132,0,7.693
	c0,0.148,0.007,0.292,0.007,0.441c0.011,0.228,0.127,0.318,0.354,0.313c0.171-0.005,0.336,0,0.495,0
	C57.466,42.469,62.801,42.469,68.141,42.469z M48.069,29.724c0.014-0.178-0.095-0.252-0.17-0.348
	c-2.029-2.619-4.149-5.151-6.457-7.528c-1.636-1.679-3.339-3.27-5.316-4.542c-0.808-0.526-1.639-0.975-2.577-1.193
	c-1.113-0.249-1.828,0.03-2.308,1.05c-0.86,1.798-1.217,3.695-0.802,5.667c0.332,1.625,1.344,2.76,2.705,3.625
	c1.363,0.864,2.864,1.368,4.415,1.77c2.876,0.733,5.815,1.044,8.752,1.363C46.89,29.649,47.48,29.782,48.069,29.724z M51.883,29.633
	c0.021,0.045,0.047,0.09,0.069,0.136c0.935-0.102,1.88-0.194,2.82-0.298c2.599-0.297,5.18-0.606,7.704-1.259
	c1.753-0.447,3.459-1.031,4.92-2.13c1.307-0.986,2.093-2.258,2.284-3.903c0.149-1.299-0.079-2.547-0.425-3.791
	c-0.154-0.58-0.372-1.143-0.738-1.634c-0.383-0.516-0.897-0.768-1.546-0.717c-0.568,0.04-1.101,0.212-1.609,0.449
	c-1.276,0.571-2.393,1.384-3.466,2.269c-2.805,2.319-5.211,5.01-7.533,7.797C53.523,27.564,52.712,28.613,51.883,29.633z"/>
</svg>
