<?xml version="1.0" encoding="utf-8"?>
<!-- Generator: Adobe Illustrator 16.0.0, SVG Export Plug-In . SVG Version: 6.00 Build 0)  -->
<!DOCTYPE svg PUBLIC "-//W3C//DTD SVG 1.1//EN" "http://www.w3.org/Graphics/SVG/1.1/DTD/svg11.dtd">
<svg version="1.1" id="Layer_1" xmlns="http://www.w3.org/2000/svg" xmlns:xlink="http://www.w3.org/1999/xlink" x="0px" y="0px"
	 width="100px" height="100px" viewBox="0 0 100 100" enable-background="new 0 0 100 100" xml:space="preserve">
<path fill="#58595B" d="M87.496,50.003c0-20.68-16.818-37.503-37.491-37.503c-10.056,0-19.192,3.985-25.933,10.451
	c-0.042,0.034-0.093,0.051-0.131,0.091c-0.025,0.026-0.034,0.061-0.056,0.088c-7.013,6.818-11.381,16.343-11.381,26.874
	c0,10.502,4.346,20.005,11.329,26.818c0.036,0.051,0.053,0.109,0.097,0.156c0.077,0.082,0.174,0.13,0.265,0.188
	C30.922,83.562,40.01,87.5,50.005,87.5c9.811,0,18.75-3.794,25.438-9.985c0.074-0.051,0.156-0.084,0.221-0.15
	c0.044-0.045,0.062-0.103,0.097-0.152C82.979,70.373,87.496,60.708,87.496,50.003z M74.646,74.556
	c-2.42-2.175-5.077-4.009-7.912-5.468c1.558-5.203,2.486-11.235,2.6-17.739h15.438C84.425,60.387,80.624,68.555,74.646,74.556z
	 M51.352,35.422c4.509-0.161,8.897-1.126,12.992-2.824c1.358,4.787,2.186,10.267,2.298,16.06h-15.29V35.422z M51.352,32.731V15.32
	c4.961,0.877,9.385,6.532,12.185,14.698C59.701,31.64,55.584,32.569,51.352,32.731z M48.66,15.319V32.73
	c-4.244-0.162-8.364-1.088-12.198-2.709C39.265,21.853,43.693,16.195,48.66,15.319z M48.66,35.421v13.236H33.357
	c0.111-5.791,0.938-11.268,2.297-16.054C39.748,34.301,44.14,35.262,48.66,35.421z M48.66,51.349v13.629
	c-4.488,0.112-8.862,1.009-12.946,2.638c-1.395-4.836-2.244-10.391-2.357-16.267H48.66z M48.66,67.669V84.68
	c-4.925-0.868-9.319-6.435-12.126-14.489C40.355,68.643,44.453,67.782,48.66,67.669z M51.352,84.679V67.69
	c4.185,0.207,8.24,1.163,12.015,2.79C60.559,78.379,56.212,83.82,51.352,84.679z M51.352,64.997V51.349h15.29
	c-0.116,5.994-0.994,11.658-2.439,16.561C60.16,66.199,55.823,65.201,51.352,64.997z M84.771,48.658H69.333
	c-0.109-6.289-0.98-12.136-2.446-17.219c2.924-1.478,5.66-3.354,8.146-5.586C80.785,31.815,84.433,39.817,84.771,48.658z
	 M73.089,23.982c-2.157,1.914-4.515,3.538-7.024,4.847c-1.866-5.375-4.439-9.714-7.479-12.566
	C64.049,17.655,68.997,20.346,73.089,23.982z M33.934,28.838c-2.509-1.309-4.866-2.936-7.024-4.852
	c4.093-3.638,9.043-6.33,14.51-7.722C38.376,19.118,35.801,23.46,33.934,28.838z M24.967,25.854
	c2.487,2.234,5.225,4.104,8.148,5.582c-1.467,5.084-2.338,10.933-2.448,17.222H15.228C15.565,39.818,19.214,31.817,24.967,25.854z
	 M15.228,51.349h15.439c0.11,6.364,1.002,12.276,2.501,17.401c-2.927,1.431-5.675,3.247-8.172,5.428
	C19.226,68.213,15.566,60.201,15.228,51.349z M26.944,76.045c2.169-1.866,4.537-3.442,7.053-4.707
	c1.862,5.295,4.412,9.575,7.421,12.396C35.967,82.347,31.03,79.666,26.944,76.045z M65.88,71.682
	c2.418,1.282,4.695,2.856,6.782,4.706c-4.007,3.447-8.8,6.005-14.075,7.348C61.529,80.976,64.03,76.817,65.88,71.682z"/>
</svg>
