<?xml version="1.0" encoding="utf-8"?>
<!-- Generator: Adobe Illustrator 16.0.0, SVG Export Plug-In . SVG Version: 6.00 Build 0)  -->
<!DOCTYPE svg PUBLIC "-//W3C//DTD SVG 1.1//EN" "http://www.w3.org/Graphics/SVG/1.1/DTD/svg11.dtd">
<svg version="1.1" id="Layer_1" xmlns="http://www.w3.org/2000/svg" xmlns:xlink="http://www.w3.org/1999/xlink" x="0px" y="0px"
	 width="100px" height="100px" viewBox="0 0 100 100" enable-background="new 0 0 100 100" xml:space="preserve">
<path fill="#404041" d="M50.003,51.977c7.838,0,14.215-6.376,14.215-14.213c0-7.841-6.377-14.22-14.215-14.22
	c-7.841,0-14.22,6.379-14.22,14.22C35.783,45.601,42.162,51.977,50.003,51.977z M50.003,26.51c6.202,0,11.248,5.048,11.248,11.253
	c0,6.202-5.046,11.247-11.248,11.247c-6.205,0-11.253-5.045-11.253-11.247C38.75,31.558,43.798,26.51,50.003,26.51z M75.06,37.763
	c0-13.82-11.24-25.063-25.057-25.063c-13.819,0-25.062,11.243-25.062,25.063c0,7.579,3.387,14.377,8.72,18.976v29.077
	c0,0.56,0.315,1.072,0.815,1.324c0.499,0.252,1.099,0.2,1.549-0.131l13.978-10.329l13.971,10.328c0.26,0.192,0.57,0.291,0.882,0.291
	c0.228,0,0.457-0.053,0.668-0.159c0.5-0.252,0.815-0.765,0.815-1.324V56.742C71.673,52.143,75.06,45.343,75.06,37.763z
	 M27.907,37.763c0-12.184,9.912-22.096,22.096-22.096c12.181,0,22.09,9.912,22.09,22.096c0,12.183-9.909,22.094-22.09,22.094
	C37.819,59.857,27.907,49.946,27.907,37.763z M63.372,82.875l-12.487-9.231c-0.522-0.388-1.238-0.388-1.763-0.001l-12.494,9.233
	V58.941c3.874,2.455,8.459,3.883,13.375,3.883c4.913,0,9.497-1.428,13.369-3.881V82.875z"/>
</svg>
