<?xml version="1.0" encoding="utf-8"?>
<!-- Generator: Adobe Illustrator 16.0.0, SVG Export Plug-In . SVG Version: 6.00 Build 0)  -->
<!DOCTYPE svg PUBLIC "-//W3C//DTD SVG 1.1//EN" "http://www.w3.org/Graphics/SVG/1.1/DTD/svg11.dtd">
<svg version="1.1" id="Layer_1" xmlns="http://www.w3.org/2000/svg" xmlns:xlink="http://www.w3.org/1999/xlink" x="0px" y="0px"
	 width="100px" height="100px" viewBox="0 0 100 100" enable-background="new 0 0 100 100" xml:space="preserve">
<g>
	<path fill="#404041" d="M81.119,87.974H55.72c-0.86,0-1.557-0.696-1.557-1.557V67.453h-8.327v18.964
		c0,0.86-0.697,1.557-1.557,1.557H18.889c-0.86,0-1.556-0.696-1.556-1.557V53.811h-5.776c-0.639,0-1.214-0.391-1.448-0.984
		c-0.235-0.596-0.081-1.273,0.386-1.71L48.942,15.27c0.599-0.558,1.525-0.558,2.123,0l38.44,35.846
		c0.469,0.437,0.621,1.114,0.387,1.71c-0.234,0.594-0.81,0.984-1.448,0.984h-5.769v32.606
		C82.675,87.277,81.979,87.974,81.119,87.974z M57.276,84.86h22.286V52.255c0-0.86,0.695-1.557,1.557-1.557h3.373L50.003,18.536
		L15.508,50.698h3.38c0.859,0,1.556,0.696,1.556,1.557V84.86h22.279V65.898c0-0.861,0.697-1.558,1.556-1.558h11.44
		c0.86,0,1.557,0.696,1.557,1.558V84.86z"/>
</g>
</svg>
