<?xml version="1.0" encoding="utf-8"?>
<!-- Generator: Adobe Illustrator 16.0.0, SVG Export Plug-In . SVG Version: 6.00 Build 0)  -->
<!DOCTYPE svg PUBLIC "-//W3C//DTD SVG 1.1//EN" "http://www.w3.org/Graphics/SVG/1.1/DTD/svg11.dtd">
<svg version="1.1" id="Layer_1" xmlns="http://www.w3.org/2000/svg" xmlns:xlink="http://www.w3.org/1999/xlink" x="0px" y="0px"
	 width="100px" height="100px" viewBox="0 0 100 100" enable-background="new 0 0 100 100" xml:space="preserve">
<g>
	<g>
		<path fill="#58595B" d="M56.858,85.656c-0.252,0-0.5-0.082-0.704-0.236L50,80.765l-6.154,4.655
			c-0.266,0.201-0.604,0.277-0.932,0.214c-0.327-0.065-0.61-0.267-0.779-0.554l-3.908-6.652l-7.473,1.937
			c-0.322,0.085-0.665,0.026-0.942-0.159c-0.277-0.186-0.461-0.479-0.507-0.81l-1.062-7.636l-7.641-1.062
			c-0.33-0.046-0.625-0.23-0.81-0.508s-0.243-0.62-0.159-0.942l1.946-7.477l-6.661-3.908c-0.288-0.169-0.489-0.452-0.554-0.779
			s0.013-0.666,0.214-0.932l4.655-6.154l-4.655-6.153c-0.201-0.266-0.279-0.605-0.214-0.932c0.065-0.327,0.267-0.611,0.554-0.779
			l6.661-3.908l-1.946-7.467c-0.084-0.322-0.026-0.666,0.159-0.943c0.185-0.277,0.48-0.462,0.81-0.508l7.641-1.066l1.062-7.642
			c0.046-0.33,0.23-0.625,0.508-0.81c0.277-0.186,0.621-0.244,0.943-0.159l7.472,1.946l3.908-6.656
			c0.168-0.287,0.452-0.489,0.779-0.554c0.328-0.066,0.666,0.013,0.932,0.213L50,19.23l6.154-4.651
			c0.266-0.201,0.608-0.277,0.932-0.213c0.327,0.065,0.61,0.267,0.779,0.554l3.907,6.656l7.473-1.946
			c0.319-0.085,0.665-0.026,0.942,0.159c0.277,0.185,0.462,0.48,0.508,0.81l1.062,7.642l7.646,1.066
			c0.33,0.046,0.625,0.231,0.81,0.508c0.186,0.277,0.243,0.62,0.159,0.943l-1.945,7.467l6.655,3.908
			c0.288,0.169,0.489,0.452,0.555,0.779c0.064,0.327-0.014,0.666-0.214,0.932l-4.655,6.153l4.655,6.154
			c0.2,0.266,0.278,0.604,0.214,0.932c-0.065,0.327-0.267,0.61-0.555,0.779l-6.655,3.907l1.945,7.478
			c0.084,0.322,0.026,0.665-0.159,0.942s-0.479,0.462-0.81,0.508l-7.646,1.062l-1.062,7.636c-0.046,0.33-0.23,0.624-0.507,0.81
			c-0.277,0.186-0.618,0.245-0.942,0.159l-7.473-1.937l-3.908,6.652c-0.169,0.287-0.452,0.488-0.779,0.554
			C57.011,85.648,56.935,85.656,56.858,85.656z M50,78.133c0.248,0,0.496,0.079,0.704,0.236l5.812,4.396l3.689-6.281
			c0.264-0.448,0.791-0.67,1.3-0.538l7.058,1.829l1.003-7.212c0.071-0.517,0.479-0.924,0.995-0.995l7.221-1.003l-1.838-7.062
			c-0.132-0.505,0.089-1.036,0.539-1.301l6.285-3.69l-4.396-5.812c-0.314-0.417-0.314-0.992,0-1.409l4.396-5.811l-6.285-3.69
			c-0.451-0.265-0.671-0.796-0.539-1.301l1.837-7.052l-7.22-1.006c-0.517-0.072-0.924-0.479-0.995-0.996l-1.003-7.216l-7.057,1.838
			C61,24.189,60.47,23.969,60.206,23.52l-3.69-6.286l-5.812,4.392c-0.417,0.314-0.991,0.314-1.408,0l-5.812-4.392l-3.69,6.286
			c-0.265,0.45-0.793,0.669-1.301,0.539l-7.056-1.838l-1.003,7.216c-0.072,0.517-0.478,0.924-0.995,0.996l-7.215,1.006l1.838,7.052
			c0.132,0.505-0.088,1.037-0.539,1.301l-6.29,3.691l4.396,5.811c0.315,0.417,0.315,0.992,0,1.409l-4.396,5.812l6.29,3.69
			c0.451,0.264,0.671,0.796,0.539,1.301l-1.838,7.062l7.215,1.003c0.517,0.071,0.924,0.479,0.996,0.995l1.003,7.212l7.057-1.829
			c0.506-0.133,1.036,0.089,1.3,0.538l3.69,6.281l5.812-4.396C49.504,78.212,49.752,78.133,50,78.133z"/>
	</g>
	<g>
		<g>
			<path fill="#58595B" d="M46.81,43.981c0,2.045-0.45,3.573-1.35,4.572c-0.904,0.994-2.134,1.496-3.701,1.496
				c-0.966,0-1.837-0.208-2.599-0.645c-0.771-0.416-1.368-1.079-1.793-1.982c-0.431-0.895-0.644-2.002-0.644-3.294
				c0-1.396,0.166-2.561,0.497-3.499c0.331-0.932,0.871-1.638,1.619-2.12c0.743-0.483,1.695-0.72,2.854-0.72
				c0.837,0,1.571,0.123,2.206,0.378c0.634,0.266,1.169,0.649,1.609,1.184c0.44,0.53,0.767,1.174,0.979,1.94
				C46.701,42.06,46.81,42.949,46.81,43.981z M43.799,43.815c0-1.396-0.146-2.423-0.45-3.062c-0.298-0.635-0.828-0.957-1.59-0.957
				c-0.517,0-0.923,0.161-1.236,0.459c-0.298,0.307-0.516,0.757-0.62,1.349c-0.119,0.596-0.176,1.358-0.176,2.281
				c0,0.957,0.057,1.732,0.176,2.333c0.104,0.603,0.312,1.052,0.615,1.359c0.298,0.303,0.714,0.455,1.241,0.455
				c0.79,0,1.33-0.332,1.618-1.013C43.657,46.348,43.799,45.278,43.799,43.815z M57.54,39.916L44.141,61.519
				c-0.346,0.59-0.729,0.885-1.16,0.885c-0.246,0-0.492-0.096-0.738-0.284c-0.247-0.19-0.37-0.431-0.37-0.729
				c0-0.227,0.104-0.496,0.323-0.818l13.48-21.787c0.235-0.397,0.445-0.691,0.615-0.89c0.184-0.204,0.435-0.303,0.766-0.303
				c0.322,0,0.583,0.099,0.781,0.284c0.199,0.19,0.298,0.436,0.298,0.748C58.136,38.851,57.938,39.281,57.54,39.916z M63.285,55.606
				c0,2.054-0.449,3.578-1.354,4.571c-0.899,1.004-2.134,1.506-3.7,1.506c-0.977,0-1.846-0.218-2.613-0.644
				c-0.767-0.436-1.362-1.094-1.803-1.979c-0.432-0.9-0.648-1.988-0.648-3.299c0-2.093,0.396-3.669,1.192-4.729
				c0.801-1.05,2.073-1.581,3.81-1.581c0.839,0,1.567,0.132,2.201,0.388c0.621,0.256,1.154,0.643,1.605,1.155
				c0.44,0.511,0.776,1.154,0.988,1.922C63.178,53.684,63.285,54.584,63.285,55.606z M60.275,55.455
				c0-1.392-0.151-2.396-0.449-3.034c-0.298-0.64-0.833-0.961-1.595-0.961c-0.535,0-0.952,0.151-1.255,0.454
				c-0.298,0.304-0.511,0.738-0.63,1.325c-0.131,0.587-0.189,1.345-0.189,2.281c0,1.431,0.157,2.481,0.455,3.152
				c0.313,0.663,0.848,0.999,1.619,0.999c0.785,0,1.32-0.346,1.609-1.027C60.134,57.963,60.275,56.902,60.275,55.455z"/>
		</g>
	</g>
</g>
</svg>
