<?xml version="1.0" encoding="utf-8"?>
<!-- Generator: Adobe Illustrator 16.0.0, SVG Export Plug-In . SVG Version: 6.00 Build 0)  -->
<!DOCTYPE svg PUBLIC "-//W3C//DTD SVG 1.1//EN" "http://www.w3.org/Graphics/SVG/1.1/DTD/svg11.dtd">
<svg version="1.1" id="Layer_1" xmlns="http://www.w3.org/2000/svg" xmlns:xlink="http://www.w3.org/1999/xlink" x="0px" y="0px"
	 width="100px" height="100px" viewBox="0 0 100 100" enable-background="new 0 0 100 100" xml:space="preserve">
<g>
	<g>
		<path fill="#58595B" d="M53.639,86.102h-7.282c-0.526,0-0.999-0.32-1.194-0.808L43.25,80.51c-0.146-0.363-0.45-0.635-0.812-0.726
			c-2.881-0.733-5.622-1.868-8.152-3.375c-0.318-0.192-0.744-0.213-1.092-0.069l-4.726,2.029c-0.482,0.206-1.043,0.1-1.415-0.272
			l-5.154-5.148c-0.372-0.371-0.48-0.932-0.273-1.415l2.027-4.737c0.156-0.358,0.128-0.755-0.074-1.094
			c-1.501-2.525-2.634-5.263-3.366-8.137c-0.097-0.364-0.365-0.672-0.712-0.812l-4.79-1.918c-0.488-0.195-0.808-0.668-0.808-1.193
			v-7.296c0-0.525,0.32-0.998,0.808-1.193l4.789-1.918c0.35-0.145,0.615-0.449,0.715-0.83c0.736-2.88,1.869-5.615,3.366-8.12
			c0.201-0.336,0.228-0.736,0.073-1.097l-2.027-4.731c-0.207-0.483-0.099-1.043,0.272-1.415l5.154-5.158
			c0.373-0.372,0.935-0.48,1.418-0.271l4.737,2.043c0.317,0.132,0.76,0.115,1.058-0.069c2.535-1.508,5.275-2.643,8.165-3.385
			c0.377-0.092,0.679-0.358,0.822-0.714l1.911-4.782c0.195-0.488,0.668-0.809,1.194-0.809h7.282c0.525,0,0.998,0.32,1.193,0.807
			l1.918,4.784c0.141,0.357,0.442,0.62,0.809,0.709c2.885,0.74,5.625,1.874,8.159,3.375c0.341,0.21,0.733,0.223,1.094,0.075
			l4.725-2.036c0.483-0.207,1.045-0.101,1.418,0.271l5.158,5.158c0.372,0.373,0.479,0.935,0.271,1.418l-2.041,4.731
			c-0.149,0.353-0.121,0.758,0.081,1.1c1.503,2.523,2.638,5.257,3.37,8.12c0.098,0.385,0.353,0.677,0.72,0.826l4.777,1.916
			c0.487,0.195,0.807,0.667,0.807,1.193v7.296c0,0.525-0.319,0.998-0.807,1.193l-4.783,1.918c-0.359,0.142-0.617,0.438-0.714,0.814
			c-0.727,2.848-1.861,5.584-3.372,8.132c-0.197,0.336-0.228,0.747-0.078,1.096l2.04,4.734c0.208,0.484,0.101,1.046-0.272,1.419
			l-5.158,5.148c-0.371,0.371-0.93,0.48-1.415,0.271l-4.742-2.033c-0.326-0.135-0.758-0.116-1.072,0.071
			c-2.557,1.515-5.298,2.649-8.152,3.376c-0.373,0.093-0.677,0.362-0.819,0.722l-1.92,4.79
			C54.637,85.782,54.164,86.102,53.639,86.102z M47.227,83.531h5.542l1.594-3.978c0.445-1.125,1.411-1.973,2.58-2.264
			c2.61-0.664,5.124-1.705,7.464-3.091c0.997-0.597,2.287-0.688,3.388-0.232l3.957,1.696l3.925-3.917l-1.695-3.936
			c-0.471-1.099-0.386-2.375,0.227-3.417c1.389-2.342,2.429-4.851,3.096-7.463c0.301-1.171,1.144-2.129,2.255-2.566l3.969-1.591
			v-5.557l-3.977-1.595c-1.134-0.46-1.951-1.399-2.248-2.576c-0.671-2.621-1.711-5.126-3.091-7.442
			c-0.613-1.04-0.7-2.317-0.234-3.42l1.699-3.939l-3.924-3.925l-3.941,1.698c-1.155,0.478-2.423,0.374-3.424-0.244
			c-2.305-1.364-4.819-2.404-7.453-3.08c-1.159-0.282-2.127-1.125-2.573-2.251l-1.592-3.972h-5.542l-1.589,3.976
			c-0.453,1.126-1.418,1.966-2.583,2.251c-2.638,0.678-5.151,1.718-7.454,3.088c-0.962,0.598-2.288,0.702-3.397,0.239l-3.95-1.704
			l-3.923,3.926l1.685,3.932c0.476,1.11,0.39,2.392-0.229,3.428c-1.37,2.292-2.407,4.797-3.083,7.444
			c-0.307,1.174-1.121,2.107-2.235,2.568l-3.995,1.6v5.556l3.981,1.595c1.097,0.438,1.937,1.393,2.245,2.55
			c0.675,2.648,1.712,5.158,3.088,7.471c0.62,1.044,0.704,2.324,0.225,3.427l-1.682,3.931l3.922,3.918l3.938-1.69
			c1.123-0.469,2.414-0.375,3.417,0.231c2.312,1.376,4.824,2.416,7.459,3.087c1.154,0.288,2.117,1.135,2.57,2.262L47.227,83.531z"/>
	</g>
	<g>
		<path fill="#58595B" d="M50,66.198c-8.933,0-16.2-7.271-16.2-16.209c0-8.929,7.268-16.194,16.2-16.194
			c8.934,0,16.202,7.265,16.202,16.194C66.201,58.927,58.934,66.198,50,66.198z M50,36.367c-7.515,0-13.629,6.111-13.629,13.623
			c0,7.521,6.114,13.639,13.629,13.639c7.516,0,13.631-6.118,13.631-13.639C63.631,42.478,57.516,36.367,50,36.367z"/>
	</g>
</g>
</svg>
