<?xml version="1.0" encoding="utf-8"?>
<!-- Generator: Adobe Illustrator 16.0.0, SVG Export Plug-In . SVG Version: 6.00 Build 0)  -->
<!DOCTYPE svg PUBLIC "-//W3C//DTD SVG 1.1//EN" "http://www.w3.org/Graphics/SVG/1.1/DTD/svg11.dtd">
<svg version="1.1" id="Layer_1" xmlns="http://www.w3.org/2000/svg" xmlns:xlink="http://www.w3.org/1999/xlink" x="0px" y="0px"
	 width="100px" height="100px" viewBox="0 0 100 100" enable-background="new 0 0 100 100" xml:space="preserve">
<g>
	<path fill="#404041" d="M73.399,87.499c-0.309,0-0.617-0.095-0.879-0.286L50.002,70.774L27.478,87.213
		c-0.523,0.383-1.232,0.383-1.755,0.002c-0.524-0.381-0.742-1.056-0.541-1.67l8.675-26.501L11.264,42.706
		c-0.524-0.379-0.745-1.053-0.545-1.669c0.2-0.615,0.772-1.03,1.418-1.03c0.001,0,0.002,0,0.003,0l27.883,0.058l8.56-26.53
		c0.198-0.616,0.772-1.034,1.419-1.034l0,0c0.647,0,1.22,0.417,1.419,1.034l8.553,26.53l27.884-0.058c0.001,0,0.002,0,0.003,0
		c0.646,0,1.22,0.416,1.42,1.03c0.199,0.616-0.021,1.29-0.546,1.669L66.142,59.044l8.675,26.501c0.201,0.614-0.017,1.289-0.54,1.67
		C74.015,87.405,73.707,87.499,73.399,87.499z M16.758,42.999l19.729,14.266c0.526,0.38,0.746,1.055,0.543,1.672l-7.576,23.142
		l19.669-14.354c0.524-0.383,1.233-0.383,1.758,0l19.662,14.354l-7.576-23.141c-0.202-0.617,0.018-1.292,0.543-1.672l19.73-14.266
		L58.893,43.05c-0.631-0.013-1.225-0.417-1.424-1.034L50.002,18.85l-7.474,23.166c-0.199,0.617-0.771,1.037-1.422,1.034
		L16.758,42.999z"/>
</g>
</svg>
